<svg width="24" height="24" viewBox="0 0 24 24" fill="none" xmlns="http://www.w3.org/2000/svg">
<g id="Frame">
<path id="Vector" d="M6.75 3.00006V5.25006M17.25 3.00006V5.25006M3 18.7501V7.50006C3 6.90332 3.23705 6.33103 3.65901 5.90907C4.08097 5.48711 4.65326 5.25006 5.25 5.25006H18.75C19.3467 5.25006 19.919 5.48711 20.341 5.90907C20.7629 6.33103 21 6.90332 21 7.50006V18.7501M3 18.7501C3 19.3468 3.23705 19.9191 3.65901 20.3411C4.08097 20.763 4.65326 21.0001 5.25 21.0001H18.75C19.3467 21.0001 19.919 20.763 20.341 20.3411C20.7629 19.9191 21 19.3468 21 18.7501M3 18.7501V11.2501C3 10.6533 3.23705 10.081 3.65901 9.65907C4.08097 9.23711 4.65326 9.00006 5.25 9.00006H18.75C19.3467 9.00006 19.919 9.23711 20.341 9.65907C20.7629 10.081 21 10.6533 21 11.2501V18.7501" stroke="#9F9F9F" stroke-width="1.5" stroke-linecap="round" stroke-linejoin="round"/>
</g>
</svg>
